<svg width="105" height="46" viewBox="0 0 105 46" fill="none" xmlns="http://www.w3.org/2000/svg">
    <path d="M1.05957 0.708984H4.84375L18.8604 25.8359L33.3008 0.708984H36.7822L20.5557 28.8633V44H17.377V28.8633L1.05957 0.708984ZM42.6855 44V0.708984H60.5469C68.3776 0.708984 72.293 4.17025 72.293 11.0928C72.293 17.0869 68.0446 21.3353 59.5479 23.8379L74.1699 44H69.8105L55.4307 23.9287V21.7793C64.3109 20.4674 68.751 16.986 68.751 11.335C68.751 6.12793 65.8447 3.52441 60.0322 3.52441H45.8643V44H42.6855Z" fill="#2F80ED"/>
    <line x1="90.5" y1="2.5" x2="90.5" y2="34.5" stroke="#2F80ED" stroke-width="3" stroke-linecap="round"/>
    <path fill-rule="evenodd" clip-rule="evenodd" d="M76.6331 30.6065C76.6271 31.382 76.9199 32.1595 77.5117 32.7512L88.1183 43.3578C89.2898 44.5294 91.1893 44.5294 92.3609 43.3578L102.968 32.7512C103.559 32.1595 103.852 31.382 103.846 30.6065H100.823L100.846 30.6299L90.2396 41.2365L79.633 30.6299L79.6564 30.6065L76.6331 30.6065Z" fill="#2F80ED"/>
</svg>
