<svg width="61" height="62" viewBox="0 0 61 62" fill="none" xmlns="http://www.w3.org/2000/svg">
    <path d="M0 13.9924C0 12.892 0.910355 12 2.03333 12H58.9667C60.0896 12 61 12.892 61 13.9924V49.8547C61 50.955 60.0896 51.847 58.9667 51.847H2.03333C0.910356 51.847 0 50.955 0 49.8547V13.9924Z" fill="#2F80ED"/>
    <path d="M0 61.2015V49.8547C0 49.4145 0.364142 49.0577 0.813333 49.0577H10.4635C11.1531 49.0577 11.5298 49.8458 11.0883 50.3649L1.43815 61.7117C0.95116 62.2843 0 61.9468 0 61.2015Z" fill="#2F80ED"/>
    <line x1="29.7504" y1="13.8298" x2="21.1171" y2="0.829812" stroke="#2F80ED" stroke-width="3"/>
    <line x1="28.7051" y1="12.2429" x2="34.8984" y2="1.65092" stroke="#2F80ED" stroke-width="3"/>
    <line x1="17.3429" y1="41" x2="17.3429" y2="30" stroke="#F2F2F2" stroke-width="4"/>
    <line x1="26.8571" y1="41" x2="26.8571" y2="21" stroke="#F2F2F2" stroke-width="4"/>
    <line x1="36.3714" y1="41" x2="36.3714" y2="25" stroke="#F2F2F2" stroke-width="4"/>
    <line x1="44.8286" y1="41" x2="44.8286" y2="22" stroke="#F2F2F2" stroke-width="4"/>
    <line x1="13" y1="41" x2="50" y2="41" stroke="#F2F2F2" stroke-width="2"/>
</svg>
